<?xml version="1.0" encoding="UTF-8"?> <svg xmlns="http://www.w3.org/2000/svg" width="75" height="70" viewBox="0 0 75 70" fill="none"><rect width="75" height="70" rx="20" fill="#FBCE7B"></rect><path d="M38 20C41.6256 20 44.9847 20.7056 47.4951 21.916C49.9125 23.0815 52 24.9689 52 27.5V42.5C52 45.0311 49.9125 46.9185 47.4951 48.084C44.9847 49.2944 41.6256 50 38 50C34.3744 50 31.0153 49.2944 28.5049 48.084C26.0875 46.9185 24 45.0311 24 42.5V27.5C24 24.9689 26.0875 23.0815 28.5049 21.916C31.0153 20.7056 34.3744 20 38 20ZM29.1465 38.0908C28.6618 37.8261 28.0538 38.0046 27.7891 38.4893C27.5244 38.9739 27.7029 39.5819 28.1875 39.8467C30.6501 41.1919 34.1614 41.9999 38 42C41.8388 42 45.3508 41.192 47.8135 39.8467C48.2981 39.5819 48.4757 38.9739 48.2109 38.4893C47.9461 38.0048 47.3391 37.8263 46.8545 38.0908C44.7566 39.2368 41.5949 40 38 40C34.4053 39.9999 31.2443 39.2368 29.1465 38.0908ZM29.1465 30.5908C28.6618 30.3261 28.0538 30.5046 27.7891 30.9893C27.5244 31.4739 27.7028 32.0819 28.1875 32.3467C30.6501 33.6919 34.1614 34.5 38 34.5C41.8388 34.5 45.3508 33.692 47.8135 32.3467C48.2981 32.0819 48.4757 31.4739 48.2109 30.9893C47.9461 30.5048 47.3391 30.3263 46.8545 30.5908C44.7566 31.7368 41.5949 32.5 38 32.5C34.4052 32.5 31.2443 31.7368 29.1465 30.5908Z" fill="#BB3C1C"></path></svg> 