<svg xmlns="http://www.w3.org/2000/svg" viewBox="0 0 64 64" fill="none" shape-rendering="auto"><metadata xmlns:rdf="http://www.w3.org/1999/02/22-rdf-syntax-ns#" xmlns:xsi="http://www.w3.org/2001/XMLSchema-instance" xmlns:dc="http://purl.org/dc/elements/1.1/" xmlns:dcterms="http://purl.org/dc/terms/"><rdf:RDF><rdf:Description><dc:title>Personas by Draftbit</dc:title><dc:creator>Draftbit - draftbit.com</dc:creator><dc:source xsi:type="dcterms:URI">https://personas.draftbit.com/</dc:source><dcterms:license xsi:type="dcterms:URI">https://creativecommons.org/licenses/by/4.0/</dcterms:license><dc:rights>Remix of „Personas by Draftbit” (https://personas.draftbit.com/) by „Draftbit - draftbit.com”, licensed under „CC BY 4.0” (https://creativecommons.org/licenses/by/4.0/)</dc:rights></rdf:Description></rdf:RDF></metadata><mask id="viewboxMask"><rect width="64" height="64" rx="0" ry="0" x="0" y="0" fill="#fff" /></mask><g mask="url(#viewboxMask)"><rect fill="#FFE9D2" width="64" height="64" x="0" y="0" /><path d="M37 46.08V52a5 5 0 0 1-10 0v-5.92A14.04 14.04 0 0 1 18.58 37h-.08a4.5 4.5 0 0 1-.5-8.97V27a14 14 0 1 1 28 0v1.03a4.5 4.5 0 0 1-.58 8.97A14.04 14.04 0 0 1 37 46.08Z" fill="#e7a391"/><mask id="personas-a" style="mask-type:luminance" maskUnits="userSpaceOnUse" x="14" y="13" width="36" height="44"><path d="M37 46.08V52a5 5 0 0 1-10 0v-5.92A14.04 14.04 0 0 1 18.58 37h-.08a4.5 4.5 0 0 1-.5-8.97V27a14 14 0 1 1 28 0v1.03a4.5 4.5 0 0 1-.58 8.97A14.04 14.04 0 0 1 37 46.08Z" fill="#fff"/></mask><g mask="url(#personas-a)"><path d="M32 13a14 14 0 0 1 14 14v6a14 14 0 1 1-28 0v-6a14 14 0 0 1 14-14Z" fill="#fff" style="mix-blend-mode:overlay" opacity=".36"/></g><g transform="translate(20 24)"><path d="M4 4.5a1.5 1.5 0 1 0 3 0 1.5 1.5 0 0 0-3 0ZM21.24 3.9a.75.75 0 0 0-.83-.64l-4 .5a.75.75 0 0 0 .18 1.48l4-.5c.41-.05.7-.42.65-.83Z" fill="#1B0640"/></g><g transform="translate(2 2)"><path d="M20.2 15a10 10 0 1 1 19.6 0c-2.53-2.47-5.98-4-9.8-4-3.82 0-7.27 1.53-9.8 4Z" fill="#e15c66"/><path d="M43.93 23.63A14 14 0 0 0 31 15h-2a14 14 0 0 0-12.93 8.63 14 14 0 0 1 27.86 0Z" fill="#F55D81"/></g><g transform="translate(11 44)"><path d="M16 5v3a5 5 0 0 0 10 0V5l6.65 2.05a9 9 0 0 1 6.35 8.6V20H3v-4.35a9 9 0 0 1 6.35-8.6L16 5Z" fill="#456dff"/><path d="m11 6.54-1.65.5A9 9 0 0 0 7 8.17V20h4V6.54ZM15 20h4v-5.29a7.02 7.02 0 0 1-4-3.1V20ZM23 20h4v-8.4a7.02 7.02 0 0 1-4 3.11v5.3ZM31 20h4V8.16a9 9 0 0 0-2.35-1.12L31 6.55V20Z" style="mix-blend-mode:overlay" opacity=".4" fill="#000"/><path d="M3.4 13a9.01 9.01 0 0 1 2.53-4h8.14a6.98 6.98 0 0 0 2.03 4H3.4ZM39 17v3H3v-3h36ZM36.07 9a9.01 9.01 0 0 1 2.53 4H25.9a6.98 6.98 0 0 0 2.03-4h8.14Z" style="mix-blend-mode:lighten" opacity=".17" fill="#fff"/></g><g transform="translate(23 36)"><path fill-rule="evenodd" clip-rule="evenodd" d="M9 2c-.76 0-1.51-.14-2.27-.41A2.03 2.03 0 0 0 4 3.5c0 1.4.82 2.6 2 3.17a3 3 0 0 0 6 0 3.5 3.5 0 0 0 2-3.17 2.03 2.03 0 0 0-2.73-1.91C10.51 1.86 9.76 2 9 2ZM7.59 7h2.82A1.5 1.5 0 0 1 7.6 7Z" fill="#456DFF"/><path fill-rule="evenodd" clip-rule="evenodd" d="M12 6.5v.17a3.5 3.5 0 0 0 2-3.17 2.03 2.03 0 0 0-2.73-1.91 6.61 6.61 0 0 1-4.54 0A2.03 2.03 0 0 0 4 3.5c0 1.4.82 2.6 2 3.17V6.5a3 3 0 1 1 6 0ZM7.59 7h2.82A1.5 1.5 0 1 0 7.6 7Z" fill="#fff" fill-opacity=".3" style="mix-blend-mode:lighten"/><circle cx="9" cy="4.5" r="1.5" fill="#fff"/></g><g transform="translate(24 28)"><path d="M4.25 5a.75.75 0 0 1 1.5 0c0 .84.91 1.75 2.25 1.75 1.34 0 2.25-.91 2.25-1.75a.75.75 0 0 1 1.5 0c0 1.66-1.59 3.25-3.75 3.25S4.25 6.66 4.25 5Z" fill="#000" style="mix-blend-mode:overlay" opacity=".36"/></g><g transform="translate(14 26)"><path d="M10 14a5 5 0 0 1 5-5h6a5 5 0 0 1 5 5H10Z" fill="#e15c66"/></g></g></svg>