<?xml version="1.0" encoding="UTF-8"?> <svg xmlns="http://www.w3.org/2000/svg" width="75" height="70" viewBox="0 0 75 70" fill="none"><rect width="75" height="70" rx="20" fill="#F86704"></rect><path fill-rule="evenodd" clip-rule="evenodd" d="M43.311 20.1287C44.7051 21.3679 45.6673 23.1102 45.9286 25.2836C45.9517 25.4755 46.096 25.6328 46.2861 25.6682C50.2103 26.3999 52.3782 27.9202 53.4872 30.7813C53.5544 30.9545 53.4935 31.1507 53.3439 31.2608C47.9662 35.2191 42.6921 37.125 37.5 37.125C32.3079 37.125 27.0338 35.2191 21.6561 31.2608C21.5065 31.1507 21.4456 30.9545 21.5128 30.7813C22.6218 27.9202 24.7897 26.3999 28.7139 25.6682C28.904 25.6328 29.0483 25.4755 29.0714 25.2836C29.3327 23.1102 30.2949 21.3679 31.689 20.1287C33.3083 18.6893 35.4273 18 37.5 18C39.5727 18 41.6917 18.6893 43.311 20.1287ZM37.5 25.0833C35.6403 25.0833 33.9747 25.1253 32.4844 25.2239C32.2071 25.2423 31.9838 24.996 32.0567 24.7278C32.3464 23.6625 32.8955 22.8472 33.5714 22.2463C34.6083 21.3246 36.031 20.8333 37.5 20.8333C38.969 20.8333 40.3917 21.3246 41.4286 22.2463C42.1045 22.8472 42.6536 23.6625 42.9433 24.7278C43.0162 24.996 42.7929 25.2423 42.5156 25.2239C41.0253 25.1253 39.3597 25.0833 37.5 25.0833Z" fill="#FCFBF7"></path><path d="M21.3146 34.4892C21.0496 34.3094 20.6864 34.4703 20.6555 34.7891C20.5467 35.9127 20.5 37.1595 20.5 38.5417C20.5 49.6246 23.5005 52 37.5 52C51.4995 52 54.5 49.6246 54.5 38.5417C54.5 37.1595 54.4533 35.9127 54.3445 34.7891C54.3136 34.4703 53.9504 34.3094 53.6854 34.4892C48.3713 38.097 42.9706 39.9583 37.5 39.9583C32.0294 39.9583 26.6287 38.097 21.3146 34.4892Z" fill="#FCFBF7"></path></svg> 