<?xml version="1.0" encoding="UTF-8"?> <svg xmlns="http://www.w3.org/2000/svg" width="75" height="70" viewBox="0 0 75 70" fill="none"><rect width="75" height="70" rx="20" fill="#664C29"></rect><path d="M27.2413 36.5C36.8963 42.5 38.1037 42.5 47.7587 36.5C57.4137 30.5 57.4137 30.5 47.7587 24.5C38.1037 18.5 36.8963 18.5 27.2413 24.5C22.4138 27.5 20 29 20 30.5V44C20 44.8284 20.6268 45.5 21.4 45.5C22.1732 45.5 22.8 44.8284 22.8 44L22.8 34.2102C22.8 33.9724 23.046 33.8285 23.234 33.9549C24.3041 34.6747 25.6399 35.5048 27.2413 36.5Z" fill="#FCFBF7"></path><path d="M27.2413 38.0001C36.8963 44.0001 38.1037 44.0001 47.7587 38.0001L48.3095 37.6578C48.7466 37.3859 49.2976 37.684 49.3297 38.2244C49.3783 39.041 49.4 39.9619 49.4 41C49.4 48.5 46.6 50 37.4519 50C27.6919 50 25.6 48.5 25.6 41C25.6 39.9623 25.6208 39.0419 25.6676 38.2256C25.6986 37.684 26.2506 37.3842 26.6886 37.6565L27.2413 38.0001Z" fill="#FCFBF7"></path></svg> 