<?xml version="1.0" encoding="UTF-8"?> <svg xmlns="http://www.w3.org/2000/svg" width="41" height="34" viewBox="0 0 41 34" fill="none"><path d="M1.86159 15.5674C1.95158 15.5224 2.04162 15.4796 2.12936 15.4391C3.65477 14.7324 5.20042 14.0708 6.74382 13.4091C6.82707 13.4091 6.96653 13.3124 7.04527 13.2809C7.16451 13.2291 7.28377 13.1796 7.40302 13.1278C7.6325 13.0288 7.862 12.932 8.08924 12.833C8.54821 12.6372 9.0049 12.4414 9.46387 12.2456L12.2109 11.0686C14.0423 10.2854 15.876 9.49998 17.7074 8.71679C19.5388 7.93361 21.3724 7.14818 23.2038 6.365C25.0352 5.58181 26.8688 4.79639 28.7002 4.01321C30.5315 3.23003 32.3652 2.44459 34.1966 1.66141C34.6038 1.48587 35.0448 1.2248 35.4813 1.14829C35.848 1.08302 36.2057 0.956999 36.5747 0.887233C37.2744 0.754452 38.0461 0.700444 38.7165 0.990762C38.9483 1.09204 39.162 1.23382 39.3398 1.41161C40.1902 2.2533 40.0709 3.63511 39.891 4.81889C38.6378 13.0693 37.3846 21.322 36.1292 29.5724C35.9582 30.7044 35.7242 31.9467 34.831 32.6624C34.0751 33.2677 32.9996 33.3353 32.0659 33.0787C31.1323 32.8199 30.3088 32.2775 29.5011 31.7441C26.1511 29.5251 22.7988 27.3061 19.4488 25.0871C18.6523 24.5605 17.7659 23.8718 17.7749 22.9153C17.7794 22.3392 18.1236 21.8261 18.4746 21.3692C21.3859 17.5704 25.5864 14.9597 28.7114 11.3364C29.1524 10.8255 29.4989 9.90282 28.8937 9.608C28.5337 9.43246 28.1197 9.67101 27.7912 9.89832C23.6605 12.7677 19.532 15.6394 15.4013 18.5088C14.0536 19.445 12.6407 20.4083 11.0163 20.6378C9.56289 20.8449 8.1005 20.4398 6.69433 20.0257C5.51541 19.6791 4.33869 19.3235 3.16652 18.9567C2.5433 18.7631 1.89984 18.5538 1.41837 18.115C0.9369 17.6761 0.660205 16.9379 0.950437 16.3528C1.13268 15.986 1.48591 15.7542 1.85714 15.5651L1.86159 15.5674Z" fill="#FEFFFC"></path></svg> 