<?xml version="1.0" encoding="UTF-8"?> <svg xmlns="http://www.w3.org/2000/svg" width="42" height="42" viewBox="0 0 42 42" fill="none"><path d="M27.18 30.3942C18.9613 30.3942 12.2747 23.7034 12.2725 15.4822C12.2747 13.3983 13.9711 11.7036 16.05 11.7036C16.2637 11.7036 16.4752 11.7216 16.6777 11.7576C17.1231 11.8319 17.5461 11.9827 17.9354 12.21C17.9916 12.2437 18.0299 12.2978 18.0389 12.3608L18.9073 17.8363C18.9185 17.8993 18.8983 17.9646 18.8556 18.0118C18.3763 18.543 17.7644 18.9255 17.0827 19.1168L16.7542 19.2091L16.8779 19.5264C17.9983 22.3801 20.2797 24.6599 23.1348 25.7851L23.452 25.9112L23.5442 25.5826C23.7355 24.9007 24.118 24.2885 24.6489 23.8092C24.6872 23.7732 24.7389 23.7552 24.7907 23.7552C24.8019 23.7552 24.8132 23.7552 24.8267 23.7574L30.3006 24.6261C30.3658 24.6374 30.4198 24.6734 30.4536 24.7296C30.6786 25.119 30.8293 25.5443 30.9058 25.9899C30.9418 26.188 30.9576 26.3973 30.9576 26.6156C30.9576 28.6973 29.2634 30.3919 27.18 30.3942Z" fill="#FDFDFD"></path><path d="M41.7529 19.195C41.3097 14.1853 39.0148 9.53797 35.2913 6.11042C31.5453 2.66263 26.6856 0.763184 21.6032 0.763184C10.4483 0.763184 1.37244 9.84178 1.37244 20.9999C1.37244 24.7447 2.4051 28.3928 4.36023 31.5706L0 41.2253L13.9604 39.7377C16.388 40.7324 18.9573 41.2366 21.6009 41.2366C22.2961 41.2366 23.0093 41.2005 23.7248 41.1263C24.3547 41.0588 24.9915 40.9597 25.6169 40.8337C34.9583 38.9455 41.7776 30.6524 41.8316 21.1079V20.9999C41.8316 20.3922 41.8046 19.7846 41.7507 19.1972L41.7529 19.195ZM14.4981 35.5L6.77435 36.3237L9.08046 31.2127L8.61922 30.5938C8.58548 30.5488 8.55173 30.5038 8.51349 30.4521C6.51111 27.6862 5.45366 24.4184 5.45366 21.0021C5.45366 12.0946 12.6982 4.84789 21.6032 4.84789C29.9456 4.84789 37.0169 11.3586 37.6987 19.6698C37.7346 20.1154 37.7549 20.5633 37.7549 21.0044C37.7549 21.1304 37.7526 21.2542 37.7504 21.387C37.5794 28.8384 32.3755 35.1669 25.0949 36.7783C24.5392 36.9021 23.97 36.9966 23.403 37.0573C22.8136 37.1249 22.2084 37.1586 21.6077 37.1586C19.468 37.1586 17.3892 36.7445 15.425 35.9253C15.2068 35.8376 14.9931 35.743 14.7928 35.6463L14.5004 35.5045L14.4981 35.5Z" fill="#FDFDFD"></path></svg> 